<mxfile host="app.diagrams.net" modified="2023-07-10T09:23:22.951Z" agent="Mozilla/5.0 (X11; Linux x86_64) AppleWebKit/537.36 (KHTML, like Gecko) Chrome/114.0.0.0 Safari/537.36" etag="wPjhmqv1SZMZOz59Gh00" version="21.6.1" type="device">
  <diagram name="Page-1" id="s78Id_kRNYLQqvDDZ7H1">
    <mxGraphModel dx="1029" dy="1803" grid="1" gridSize="10" guides="1" tooltips="1" connect="1" arrows="1" fold="1" page="1" pageScale="1" pageWidth="850" pageHeight="1100" math="0" shadow="0">
      <root>
        <mxCell id="0" />
        <mxCell id="1" parent="0" />
        <mxCell id="DYDVYI4Q6iPklbduKv8m-11" style="edgeStyle=orthogonalEdgeStyle;rounded=0;orthogonalLoop=1;jettySize=auto;html=1;exitX=1;exitY=1;exitDx=0;exitDy=0;entryX=0.5;entryY=0;entryDx=0;entryDy=0;" parent="1" source="DYDVYI4Q6iPklbduKv8m-1" target="DYDVYI4Q6iPklbduKv8m-10" edge="1">
          <mxGeometry relative="1" as="geometry" />
        </mxCell>
        <mxCell id="DYDVYI4Q6iPklbduKv8m-12" style="edgeStyle=orthogonalEdgeStyle;rounded=0;orthogonalLoop=1;jettySize=auto;html=1;exitX=0;exitY=1;exitDx=0;exitDy=0;entryX=0.5;entryY=0;entryDx=0;entryDy=0;" parent="1" source="DYDVYI4Q6iPklbduKv8m-1" target="DYDVYI4Q6iPklbduKv8m-5" edge="1">
          <mxGeometry relative="1" as="geometry" />
        </mxCell>
        <mxCell id="DYDVYI4Q6iPklbduKv8m-1" value="" style="whiteSpace=wrap;html=1;aspect=fixed;" parent="1" vertex="1">
          <mxGeometry x="325" y="400" width="80" height="80" as="geometry" />
        </mxCell>
        <mxCell id="DYDVYI4Q6iPklbduKv8m-2" value="Main Menu" style="text;strokeColor=none;align=center;fillColor=none;html=1;verticalAlign=middle;whiteSpace=wrap;rounded=0;" parent="1" vertex="1">
          <mxGeometry x="335" y="425" width="60" height="30" as="geometry" />
        </mxCell>
        <mxCell id="DYDVYI4Q6iPklbduKv8m-21" style="edgeStyle=orthogonalEdgeStyle;rounded=0;orthogonalLoop=1;jettySize=auto;html=1;exitX=0.5;exitY=1;exitDx=0;exitDy=0;entryX=0.5;entryY=0;entryDx=0;entryDy=0;" parent="1" source="DYDVYI4Q6iPklbduKv8m-5" target="DYDVYI4Q6iPklbduKv8m-15" edge="1">
          <mxGeometry relative="1" as="geometry" />
        </mxCell>
        <mxCell id="DYDVYI4Q6iPklbduKv8m-5" value="" style="rhombus;whiteSpace=wrap;html=1;" parent="1" vertex="1">
          <mxGeometry x="285" y="500" width="50" height="50" as="geometry" />
        </mxCell>
        <mxCell id="DYDVYI4Q6iPklbduKv8m-6" value="Start&lt;br&gt;" style="text;strokeColor=none;align=center;fillColor=none;html=1;verticalAlign=middle;whiteSpace=wrap;rounded=0;" parent="1" vertex="1">
          <mxGeometry x="280" y="510" width="60" height="30" as="geometry" />
        </mxCell>
        <mxCell id="DYDVYI4Q6iPklbduKv8m-10" value="" style="rhombus;whiteSpace=wrap;html=1;" parent="1" vertex="1">
          <mxGeometry x="395" y="500" width="50" height="50" as="geometry" />
        </mxCell>
        <mxCell id="DYDVYI4Q6iPklbduKv8m-13" style="edgeStyle=orthogonalEdgeStyle;rounded=0;orthogonalLoop=1;jettySize=auto;html=1;exitX=1;exitY=0.5;exitDx=0;exitDy=0;" parent="1" source="DYDVYI4Q6iPklbduKv8m-9" target="DYDVYI4Q6iPklbduKv8m-14" edge="1">
          <mxGeometry relative="1" as="geometry">
            <mxPoint x="560" y="525" as="targetPoint" />
          </mxGeometry>
        </mxCell>
        <mxCell id="DYDVYI4Q6iPklbduKv8m-9" value="Quit" style="text;strokeColor=none;align=center;fillColor=none;html=1;verticalAlign=middle;whiteSpace=wrap;rounded=0;" parent="1" vertex="1">
          <mxGeometry x="390" y="510" width="60" height="30" as="geometry" />
        </mxCell>
        <mxCell id="DYDVYI4Q6iPklbduKv8m-14" value="Game Closed" style="text;html=1;strokeColor=none;fillColor=none;align=center;verticalAlign=middle;whiteSpace=wrap;rounded=0;" parent="1" vertex="1">
          <mxGeometry x="530" y="510" width="60" height="30" as="geometry" />
        </mxCell>
        <mxCell id="DYDVYI4Q6iPklbduKv8m-23" style="edgeStyle=orthogonalEdgeStyle;rounded=0;orthogonalLoop=1;jettySize=auto;html=1;exitX=0.5;exitY=1;exitDx=0;exitDy=0;entryX=0;entryY=0.5;entryDx=0;entryDy=0;" parent="1" source="DYDVYI4Q6iPklbduKv8m-15" target="DYDVYI4Q6iPklbduKv8m-22" edge="1">
          <mxGeometry relative="1" as="geometry" />
        </mxCell>
        <mxCell id="DYDVYI4Q6iPklbduKv8m-26" style="edgeStyle=orthogonalEdgeStyle;rounded=0;orthogonalLoop=1;jettySize=auto;html=1;exitX=1;exitY=0.5;exitDx=0;exitDy=0;entryX=0;entryY=0.5;entryDx=0;entryDy=0;" parent="1" source="DYDVYI4Q6iPklbduKv8m-15" target="DYDVYI4Q6iPklbduKv8m-25" edge="1">
          <mxGeometry relative="1" as="geometry" />
        </mxCell>
        <mxCell id="DYDVYI4Q6iPklbduKv8m-15" value="Level 1" style="whiteSpace=wrap;html=1;aspect=fixed;" parent="1" vertex="1">
          <mxGeometry x="210" y="610" width="50" height="50" as="geometry" />
        </mxCell>
        <mxCell id="DYDVYI4Q6iPklbduKv8m-16" value="" style="shape=flexArrow;endArrow=classic;html=1;rounded=0;entryX=0.5;entryY=0;entryDx=0;entryDy=0;" parent="1" target="DYDVYI4Q6iPklbduKv8m-1" edge="1">
          <mxGeometry width="50" height="50" relative="1" as="geometry">
            <mxPoint x="365" y="330" as="sourcePoint" />
            <mxPoint x="375" y="290" as="targetPoint" />
          </mxGeometry>
        </mxCell>
        <mxCell id="DYDVYI4Q6iPklbduKv8m-17" value="Game Opened" style="text;html=1;strokeColor=none;fillColor=none;align=center;verticalAlign=middle;whiteSpace=wrap;rounded=0;" parent="1" vertex="1">
          <mxGeometry x="335" y="300" width="60" height="30" as="geometry" />
        </mxCell>
        <mxCell id="DYDVYI4Q6iPklbduKv8m-24" style="edgeStyle=orthogonalEdgeStyle;rounded=0;orthogonalLoop=1;jettySize=auto;html=1;exitX=0.5;exitY=1;exitDx=0;exitDy=0;entryX=0;entryY=0.5;entryDx=0;entryDy=0;" parent="1" source="DYDVYI4Q6iPklbduKv8m-22" target="DYDVYI4Q6iPklbduKv8m-1" edge="1">
          <mxGeometry relative="1" as="geometry">
            <Array as="points">
              <mxPoint x="365" y="790" />
              <mxPoint x="110" y="790" />
              <mxPoint x="110" y="440" />
            </Array>
          </mxGeometry>
        </mxCell>
        <mxCell id="DYDVYI4Q6iPklbduKv8m-22" value="Dies" style="rhombus;whiteSpace=wrap;html=1;" parent="1" vertex="1">
          <mxGeometry x="325" y="690" width="80" height="80" as="geometry" />
        </mxCell>
        <mxCell id="DYDVYI4Q6iPklbduKv8m-29" style="edgeStyle=orthogonalEdgeStyle;rounded=0;orthogonalLoop=1;jettySize=auto;html=1;exitX=1;exitY=0.5;exitDx=0;exitDy=0;entryX=0;entryY=0.5;entryDx=0;entryDy=0;" parent="1" source="DYDVYI4Q6iPklbduKv8m-25" target="DYDVYI4Q6iPklbduKv8m-28" edge="1">
          <mxGeometry relative="1" as="geometry" />
        </mxCell>
        <mxCell id="DYDVYI4Q6iPklbduKv8m-25" value="Passes" style="rhombus;whiteSpace=wrap;html=1;" parent="1" vertex="1">
          <mxGeometry x="300" y="610" width="50" height="50" as="geometry" />
        </mxCell>
        <mxCell id="DYDVYI4Q6iPklbduKv8m-31" style="edgeStyle=orthogonalEdgeStyle;rounded=0;orthogonalLoop=1;jettySize=auto;html=1;exitX=1;exitY=0.5;exitDx=0;exitDy=0;entryX=0;entryY=0.5;entryDx=0;entryDy=0;" parent="1" source="DYDVYI4Q6iPklbduKv8m-28" target="DYDVYI4Q6iPklbduKv8m-30" edge="1">
          <mxGeometry relative="1" as="geometry" />
        </mxCell>
        <mxCell id="DYDVYI4Q6iPklbduKv8m-32" style="edgeStyle=orthogonalEdgeStyle;rounded=0;orthogonalLoop=1;jettySize=auto;html=1;exitX=0.5;exitY=1;exitDx=0;exitDy=0;entryX=0.5;entryY=0;entryDx=0;entryDy=0;" parent="1" source="DYDVYI4Q6iPklbduKv8m-28" target="DYDVYI4Q6iPklbduKv8m-22" edge="1">
          <mxGeometry relative="1" as="geometry">
            <Array as="points">
              <mxPoint x="415" y="670" />
              <mxPoint x="365" y="670" />
            </Array>
          </mxGeometry>
        </mxCell>
        <mxCell id="DYDVYI4Q6iPklbduKv8m-28" value="Level 2" style="whiteSpace=wrap;html=1;aspect=fixed;" parent="1" vertex="1">
          <mxGeometry x="390" y="610" width="50" height="50" as="geometry" />
        </mxCell>
        <mxCell id="DYDVYI4Q6iPklbduKv8m-30" value="Passes" style="rhombus;whiteSpace=wrap;html=1;" parent="1" vertex="1">
          <mxGeometry x="480" y="610" width="50" height="50" as="geometry" />
        </mxCell>
        <mxCell id="DYDVYI4Q6iPklbduKv8m-33" value="" style="endArrow=none;dashed=1;html=1;dashPattern=1 3;strokeWidth=2;rounded=0;" parent="1" edge="1">
          <mxGeometry width="50" height="50" relative="1" as="geometry">
            <mxPoint x="540" y="634.5" as="sourcePoint" />
            <mxPoint x="630" y="634.5" as="targetPoint" />
          </mxGeometry>
        </mxCell>
        <mxCell id="DYDVYI4Q6iPklbduKv8m-35" value="&lt;font style=&quot;font-size: 24px;&quot;&gt;GAME FLOW&lt;/font&gt;" style="text;html=1;align=center;verticalAlign=middle;resizable=0;points=[];autosize=1;strokeColor=none;fillColor=none;" parent="1" vertex="1">
          <mxGeometry x="280" y="240" width="170" height="40" as="geometry" />
        </mxCell>
        <mxCell id="DYDVYI4Q6iPklbduKv8m-36" value="Player" style="swimlane;fontStyle=0;childLayout=stackLayout;horizontal=1;startSize=30;horizontalStack=0;resizeParent=1;resizeParentMax=0;resizeLast=0;collapsible=1;marginBottom=0;whiteSpace=wrap;html=1;" parent="1" vertex="1">
          <mxGeometry x="195" y="1030" width="140" height="120" as="geometry" />
        </mxCell>
        <mxCell id="DYDVYI4Q6iPklbduKv8m-37" value="Input" style="text;strokeColor=none;fillColor=none;align=left;verticalAlign=middle;spacingLeft=4;spacingRight=4;overflow=hidden;points=[[0,0.5],[1,0.5]];portConstraint=eastwest;rotatable=0;whiteSpace=wrap;html=1;" parent="DYDVYI4Q6iPklbduKv8m-36" vertex="1">
          <mxGeometry y="30" width="140" height="30" as="geometry" />
        </mxCell>
        <mxCell id="DYDVYI4Q6iPklbduKv8m-38" value="Movement" style="text;strokeColor=none;fillColor=none;align=left;verticalAlign=middle;spacingLeft=4;spacingRight=4;overflow=hidden;points=[[0,0.5],[1,0.5]];portConstraint=eastwest;rotatable=0;whiteSpace=wrap;html=1;" parent="DYDVYI4Q6iPklbduKv8m-36" vertex="1">
          <mxGeometry y="60" width="140" height="30" as="geometry" />
        </mxCell>
        <mxCell id="DYDVYI4Q6iPklbduKv8m-39" value="Shooting" style="text;strokeColor=none;fillColor=none;align=left;verticalAlign=middle;spacingLeft=4;spacingRight=4;overflow=hidden;points=[[0,0.5],[1,0.5]];portConstraint=eastwest;rotatable=0;whiteSpace=wrap;html=1;" parent="DYDVYI4Q6iPklbduKv8m-36" vertex="1">
          <mxGeometry y="90" width="140" height="30" as="geometry" />
        </mxCell>
        <mxCell id="DYDVYI4Q6iPklbduKv8m-40" value="&lt;div&gt;&lt;font style=&quot;font-size: 14px;&quot;&gt;Stealth Labyrnth Game&lt;/font&gt;&lt;/div&gt;&lt;div&gt;&lt;font size=&quot;3&quot;&gt;&lt;br&gt;&lt;/font&gt;&lt;/div&gt;&lt;div&gt;&lt;font size=&quot;3&quot;&gt;- Levels with rather simple labyrnths !!!&lt;/font&gt;&lt;/div&gt;&lt;div&gt;&lt;font size=&quot;3&quot;&gt;- bots are traveling around their own paths !!!&lt;/font&gt;&lt;/div&gt;&lt;div&gt;&lt;font size=&quot;3&quot;&gt;- shooting mechanic (for bots too ?) !!!&lt;/font&gt;&lt;/div&gt;&lt;div&gt;&lt;font size=&quot;3&quot;&gt;- control is based on touch joysticks !!!&lt;/font&gt;&lt;/div&gt;&lt;div&gt;&lt;font size=&quot;3&quot;&gt;- try to kill them without being seen or everyone will come after you !!&lt;/font&gt;&lt;/div&gt;&lt;div&gt;&lt;font size=&quot;3&quot;&gt;- one gun with unlimited ammo !!&lt;/font&gt;&lt;/div&gt;&lt;div&gt;&lt;font size=&quot;3&quot;&gt;- good game feel to overcome simplicity&amp;nbsp;&lt;/font&gt;&lt;/div&gt;&lt;div&gt;&lt;font size=&quot;3&quot;&gt;&amp;nbsp; &amp;nbsp; (cameraShake, color changes, Make the player feel that they shoot)!!&lt;/font&gt;&lt;/div&gt;&lt;div&gt;&lt;font size=&quot;3&quot;&gt;- finish level to go to next level !!&lt;/font&gt;&lt;/div&gt;&lt;div&gt;&lt;font size=&quot;3&quot;&gt;&lt;br&gt;&lt;/font&gt;&lt;/div&gt;&lt;div&gt;&lt;font size=&quot;3&quot;&gt;&lt;br&gt;&lt;/font&gt;&lt;/div&gt;&lt;div&gt;&lt;font size=&quot;3&quot;&gt;-- general look for the game&lt;/font&gt;&lt;/div&gt;&lt;div&gt;&lt;a href=&quot;https://www.youtube.com/watch?v=jUdx_Nj4Xk0&amp;amp;list=PLFt_AvWsXl0fnA91TcmkRyhhixX9CO3Lw&amp;amp;t=18&quot;&gt;&lt;font size=&quot;3&quot;&gt;Sebastian Lague example&lt;/font&gt;&lt;/a&gt;&lt;/div&gt;&lt;div&gt;&lt;font size=&quot;3&quot;&gt;&lt;span style=&quot;background-color: initial;&quot;&gt;~~~ HOTLINE MIAMI ~~~&lt;/span&gt;&lt;br&gt;&lt;/font&gt;&lt;/div&gt;&lt;div&gt;&lt;font size=&quot;3&quot;&gt;&lt;br&gt;&lt;/font&gt;&lt;/div&gt;&lt;div&gt;&lt;font size=&quot;3&quot;&gt;&lt;br&gt;&lt;/font&gt;&lt;/div&gt;&lt;div&gt;&lt;br&gt;&lt;/div&gt;" style="text;html=1;align=left;verticalAlign=middle;resizable=0;points=[];autosize=1;strokeColor=none;fillColor=none;" parent="1" vertex="1">
          <mxGeometry x="20" y="-130" width="530" height="370" as="geometry" />
        </mxCell>
        <mxCell id="e8DcupLt59ti1_RWRA_U-1" value="Enemy" style="swimlane;fontStyle=0;childLayout=stackLayout;horizontal=1;startSize=30;horizontalStack=0;resizeParent=1;resizeParentMax=0;resizeLast=0;collapsible=1;marginBottom=0;whiteSpace=wrap;html=1;" vertex="1" parent="1">
          <mxGeometry x="425" y="1030" width="140" height="90" as="geometry" />
        </mxCell>
        <mxCell id="e8DcupLt59ti1_RWRA_U-2" value="Movement" style="text;strokeColor=none;fillColor=none;align=left;verticalAlign=middle;spacingLeft=4;spacingRight=4;overflow=hidden;points=[[0,0.5],[1,0.5]];portConstraint=eastwest;rotatable=0;whiteSpace=wrap;html=1;" vertex="1" parent="e8DcupLt59ti1_RWRA_U-1">
          <mxGeometry y="30" width="140" height="30" as="geometry" />
        </mxCell>
        <mxCell id="e8DcupLt59ti1_RWRA_U-3" value="?Shooting" style="text;strokeColor=none;fillColor=none;align=left;verticalAlign=middle;spacingLeft=4;spacingRight=4;overflow=hidden;points=[[0,0.5],[1,0.5]];portConstraint=eastwest;rotatable=0;whiteSpace=wrap;html=1;" vertex="1" parent="e8DcupLt59ti1_RWRA_U-1">
          <mxGeometry y="60" width="140" height="30" as="geometry" />
        </mxCell>
        <mxCell id="e8DcupLt59ti1_RWRA_U-10" style="edgeStyle=orthogonalEdgeStyle;rounded=0;orthogonalLoop=1;jettySize=auto;html=1;exitX=0.5;exitY=1;exitDx=0;exitDy=0;entryX=0.5;entryY=0;entryDx=0;entryDy=0;" edge="1" parent="1" source="e8DcupLt59ti1_RWRA_U-9" target="DYDVYI4Q6iPklbduKv8m-36">
          <mxGeometry relative="1" as="geometry" />
        </mxCell>
        <mxCell id="e8DcupLt59ti1_RWRA_U-11" style="edgeStyle=orthogonalEdgeStyle;rounded=0;orthogonalLoop=1;jettySize=auto;html=1;exitX=0.5;exitY=1;exitDx=0;exitDy=0;entryX=0.5;entryY=0;entryDx=0;entryDy=0;" edge="1" parent="1" source="e8DcupLt59ti1_RWRA_U-9" target="e8DcupLt59ti1_RWRA_U-1">
          <mxGeometry relative="1" as="geometry" />
        </mxCell>
        <mxCell id="e8DcupLt59ti1_RWRA_U-9" value="CanTakeDamage" style="shape=hexagon;perimeter=hexagonPerimeter2;whiteSpace=wrap;html=1;fixedSize=1;" vertex="1" parent="1">
          <mxGeometry x="260" y="860" width="110" height="60" as="geometry" />
        </mxCell>
        <mxCell id="e8DcupLt59ti1_RWRA_U-13" style="edgeStyle=orthogonalEdgeStyle;rounded=0;orthogonalLoop=1;jettySize=auto;html=1;exitX=0.5;exitY=1;exitDx=0;exitDy=0;entryX=0.5;entryY=0;entryDx=0;entryDy=0;" edge="1" parent="1" source="e8DcupLt59ti1_RWRA_U-12" target="DYDVYI4Q6iPklbduKv8m-36">
          <mxGeometry relative="1" as="geometry" />
        </mxCell>
        <mxCell id="e8DcupLt59ti1_RWRA_U-12" value="CanShoot" style="shape=hexagon;perimeter=hexagonPerimeter2;whiteSpace=wrap;html=1;fixedSize=1;" vertex="1" parent="1">
          <mxGeometry x="395" y="860" width="90" height="60" as="geometry" />
        </mxCell>
        <mxCell id="e8DcupLt59ti1_RWRA_U-14" value="1 gun in the game&lt;br&gt;No need for gun system" style="rounded=1;whiteSpace=wrap;html=1;" vertex="1" parent="1">
          <mxGeometry x="660" y="860" width="150" height="60" as="geometry" />
        </mxCell>
      </root>
    </mxGraphModel>
  </diagram>
</mxfile>
